<?xml version="1.0" encoding="utf-8"?>
<!-- Generator: Adobe Illustrator 19.0.1, SVG Export Plug-In . SVG Version: 6.00 Build 0)  -->
<svg version="1.1" id="Ebene_1" xmlns="http://www.w3.org/2000/svg" xmlns:xlink="http://www.w3.org/1999/xlink" x="0px" y="0px"
	 viewBox="0 0 277.8 107.7" style="enable-background:new 0 0 277.8 107.7;" xml:space="preserve">
<style type="text/css">
	.st0{fill:#FFFFFF;}
	.st1{fill:#EF7D00;}
</style>
<g>
	<g>
		<path class="st0" d="M98.9,54.1c0,24.6-19.9,44.6-44.6,44.6c-24.6,0-44.6-19.9-44.6-44.6c0-24.6,19.9-44.6,44.6-44.6
			C78.9,9.6,98.9,29.5,98.9,54.1"/>
	</g>
	<g>
		<path class="st1" d="M96.5,54.1c0,23.3-18.9,42.2-42.2,42.2c-23.3,0-42.2-18.9-42.2-42.2c0-23.3,18.9-42.2,42.2-42.2
			C77.6,11.9,96.5,30.8,96.5,54.1"/>
	</g>
	<g>
		<path class="st0" d="M54.3,22c-17.7,0-32.1,14.4-32.1,32.1c0,17.7,14.4,32.1,32.1,32.1c17.7,0,32.1-14.4,32.1-32.1S72,22,54.3,22"
			/>
	</g>
	<g>
		<path class="st0" d="M54.3,24.4c-16.4,0-29.7,13.3-29.7,29.7c0,16.4,13.3,29.7,29.7,29.7C70.7,83.9,84,70.6,84,54.2
			C84,37.8,70.7,24.4,54.3,24.4"/>
	</g>
	<g>
		<path d="M55.7,37.5c10.9,0.3,17.2,5.3,17.2,12.6c0,6.6-4.1,10.3-17.6,12.7c-10.1,1.8-12.7,4.2-12.7,8.4c0,2.5,0.8,4.5,2.3,6.2
			c-2.3-1.4-4.1-4.3-4.1-7.7c0-2,0.6-4,2-5.6V40.3c-0.3,0-0.7,0-1,0c-0.1,0-0.3,0-0.4,0c-0.2,0-0.2-0.2,0-0.3c0.5-0.2,1-0.4,1.5-0.6
			v-5c0-0.1,0.1-0.2,0.2-0.2h2.7c0.1,0,0.2,0.1,0.2,0.2v4.1C49.1,37.8,52.8,37.4,55.7,37.5 M45.9,61.6c0.4-0.2,0.8-0.4,1.2-0.6
			c4.9-2.1,7.3-5.8,7.3-10.4c0-4.5-3.3-8.5-8.5-9.8V61.6z"/>
	</g>
	<g>
		<path d="M54.3,24.4c-16.4,0-29.7,13.3-29.7,29.7c0,16.4,13.3,29.7,29.7,29.7C70.7,83.9,84,70.6,84,54.2
			C84,37.8,70.7,24.4,54.3,24.4 M54.3,27.3c14.9,0,26.9,12,26.9,26.9C81.2,69,69.1,81,54.3,81c-14.8,0-26.8-12-26.8-26.9
			C27.5,39.3,39.4,27.3,54.3,27.3"/>
	</g>
	<g>
		<path d="M105.9,54.2c-0.1,0-0.2-0.1-0.2-0.2V39.6c0-0.2,0.1-0.2,0.2-0.2h5.5c2.9,0,4.8,1.5,4.8,4.2v0.8c0,2.3-2,3.8-4.8,3.8h-2.1
			c-0.2,0-0.3,0.1-0.3,0.2v5.6c0,0.2-0.1,0.2-0.2,0.2H105.9z M111.5,45.4c0.9,0,1.5-0.5,1.5-1.3v-0.6c0-0.7-0.6-1.3-1.5-1.3h-2.2
			c-0.2,0-0.3,0.1-0.3,0.3v2.7c0,0.1,0.1,0.2,0.3,0.2H111.5z"/>
	</g>
	<g>
		<path d="M119.4,54.2c-0.1,0-0.2-0.1-0.2-0.2V39.6c0-0.2,0.1-0.2,0.2-0.2h2.9c0.1,0,0.2,0.1,0.2,0.2v14.4c0,0.2-0.1,0.2-0.2,0.2
			H119.4z"/>
	</g>
	<g>
		<path d="M127.3,54.2c-0.1,0-0.2-0.1-0.2-0.2V39.6c0-0.2,0.1-0.2,0.2-0.2h6.2c2.9,0,4.8,1.7,4.8,4.5V44c0,1.4-0.8,2.6-1.8,3.2
			c-0.1,0.1-0.2,0.2-0.2,0.2c0,0.1,0,0.1,0.1,0.2l2.4,6.2c0,0.1,0,0.1,0,0.1c0,0.1-0.1,0.2-0.2,0.2h-3.1c-0.1,0-0.2-0.1-0.2-0.2
			l-2.3-5.8c-0.1-0.1-0.1-0.2-0.2-0.2h-2.1c-0.2,0-0.3,0.1-0.3,0.2v5.6c0,0.2-0.1,0.2-0.2,0.2H127.3z M133.5,45.4
			c0.9,0,1.5-0.5,1.5-1.4v-0.4c0-0.8-0.6-1.4-1.5-1.4h-2.8c-0.2,0-0.3,0.1-0.3,0.3v2.7c0,0.1,0.1,0.2,0.3,0.2H133.5z"/>
	</g>
	<g>
		<path d="M156.8,54.2c-0.1,0-0.2-0.1-0.2-0.2V42.5c0-0.2-0.1-0.3-0.3-0.3h-2.8c-0.2,0-0.2-0.1-0.2-0.2v-2.4c0-0.2,0.1-0.2,0.2-0.2
			h9.5c0.1,0,0.2,0.1,0.2,0.2V42c0,0.2-0.1,0.2-0.2,0.2h-2.9c-0.2,0-0.3,0.1-0.3,0.3v11.5c0,0.2-0.1,0.2-0.2,0.2H156.8z"/>
	</g>
	<g>
		<path d="M166.3,54.2c-0.1,0-0.2-0.1-0.2-0.2V39.6c0-0.2,0.1-0.2,0.2-0.2h9.4c0.1,0,0.2,0.1,0.2,0.2V42c0,0.2-0.1,0.2-0.2,0.2h-6
			c-0.2,0-0.3,0.1-0.3,0.3V45c0,0.2,0.1,0.2,0.3,0.2h4.9c0.1,0,0.3,0.1,0.3,0.2v2.5c0,0.2-0.1,0.2-0.3,0.2h-4.9
			c-0.2,0-0.3,0.1-0.3,0.2V51c0,0.2,0.1,0.2,0.3,0.2h6c0.1,0,0.2,0.1,0.2,0.2v2.4c0,0.2-0.1,0.2-0.2,0.2H166.3z"/>
	</g>
	<g>
		<path d="M179.8,54.2c-0.1,0-0.2-0.1-0.2-0.2V39.6c0-0.2,0.1-0.2,0.2-0.2h2.5c0.2,0,0.2,0.1,0.3,0.2l4.1,7.6c0.3,0.5,0.5,1,0.5,1.1
			h0.1c0-0.2-0.1-2.3-0.1-4.3v-4.3c0-0.2,0.1-0.2,0.2-0.2h2.8c0.1,0,0.2,0.1,0.2,0.2v14.4c0,0.2-0.1,0.2-0.2,0.2h-2.5
			c-0.1,0-0.1-0.1-0.2-0.2l-4.2-7.5c-0.3-0.5-0.5-1-0.5-1h-0.1c0,0.1,0.1,2.3,0.1,4.2v4.2c0,0.2-0.1,0.2-0.3,0.2H179.8z"/>
	</g>
	<g>
		<path d="M148.7,51.7c0.2,0,0.2,0,0.3,0.1l0.6,2.1c0,0.1,0.1,0.2,0.2,0.2h2.7c0.2,0,0.3-0.1,0.3-0.2c0,0,0-0.1,0-0.1l-0.1-0.4
			l-4.2-14c0-0.1-0.1-0.2-0.2-0.2H145c-0.2,0-0.2,0-0.2,0.2l-4.1,14l-0.1,0.4c0,0,0,0.1,0,0.1c0,0.1,0.1,0.2,0.3,0.2h2.6
			c0.1,0,0.2-0.1,0.2-0.2l0.6-2.1c0-0.1,0.1-0.1,0.3-0.1H148.7z M145.2,49.2c-0.2,0-0.2-0.1-0.2-0.2l1.4-5.2l0.1-0.3h0h0.4h0
			l0.1,0.3l1.4,5.2c0,0.2,0,0.2-0.2,0.2H145.2z"/>
	</g>
	<g>
		<path d="M105.9,54.2c-0.1,0-0.2-0.1-0.2-0.2V39.6c0-0.2,0.1-0.2,0.2-0.2h5.5c2.9,0,4.8,1.5,4.8,4.2v0.8c0,2.3-2,3.8-4.8,3.8h-2.1
			c-0.2,0-0.3,0.1-0.3,0.2v5.6c0,0.2-0.1,0.2-0.2,0.2H105.9z M111.5,45.4c0.9,0,1.5-0.5,1.5-1.3v-0.6c0-0.7-0.6-1.3-1.5-1.3h-2.2
			c-0.2,0-0.3,0.1-0.3,0.3v2.7c0,0.1,0.1,0.2,0.3,0.2H111.5z"/>
	</g>
	<g>
		<path d="M195.5,54.2c-0.1,0-0.2-0.1-0.2-0.2V39.6c0-0.2,0.1-0.2,0.2-0.2h5.5c2.9,0,4.8,1.5,4.8,4.2v0.8c0,2.3-2,3.8-4.8,3.8h-2.1
			c-0.2,0-0.3,0.1-0.3,0.2v5.6c0,0.2-0.1,0.2-0.2,0.2H195.5z M201.1,45.4c0.9,0,1.5-0.5,1.5-1.3v-0.6c0-0.7-0.6-1.3-1.5-1.3h-2.2
			c-0.2,0-0.3,0.1-0.3,0.3v2.7c0,0.1,0.1,0.2,0.3,0.2H201.1z"/>
	</g>
	<g>
		<path d="M119.4,54.2c-0.1,0-0.2-0.1-0.2-0.2V39.6c0-0.2,0.1-0.2,0.2-0.2h2.9c0.1,0,0.2,0.1,0.2,0.2v14.4c0,0.2-0.1,0.2-0.2,0.2
			H119.4z"/>
	</g>
	<g>
		<path d="M262,54.2c-0.1,0-0.2-0.1-0.2-0.2V39.6c0-0.2,0.1-0.2,0.2-0.2h2.9c0.1,0,0.2,0.1,0.2,0.2v14.4c0,0.2-0.1,0.2-0.2,0.2H262z
			"/>
	</g>
	<g>
		<path d="M127.3,54.2c-0.1,0-0.2-0.1-0.2-0.2V39.6c0-0.2,0.1-0.2,0.2-0.2h6.2c2.9,0,4.8,1.7,4.8,4.5V44c0,1.4-0.8,2.6-1.8,3.2
			c-0.1,0.1-0.2,0.2-0.2,0.2c0,0.1,0,0.1,0.1,0.2l2.4,6.2c0,0.1,0,0.1,0,0.1c0,0.1-0.1,0.2-0.2,0.2h-3.1c-0.1,0-0.2-0.1-0.2-0.2
			l-2.3-5.8c-0.1-0.1-0.1-0.2-0.2-0.2h-2.1c-0.2,0-0.3,0.1-0.3,0.2v5.6c0,0.2-0.1,0.2-0.2,0.2H127.3z M133.5,45.4
			c0.9,0,1.5-0.5,1.5-1.4v-0.4c0-0.8-0.6-1.4-1.5-1.4h-2.8c-0.2,0-0.3,0.1-0.3,0.3v2.7c0,0.1,0.1,0.2,0.3,0.2H133.5z"/>
	</g>
	<g>
		<path d="M221.8,54.2c-0.1,0-0.2-0.1-0.2-0.2V39.6c0-0.2,0.1-0.2,0.2-0.2h6.2c2.9,0,4.8,1.7,4.8,4.5V44c0,1.4-0.8,2.6-1.8,3.2
			c-0.1,0.1-0.2,0.2-0.2,0.2c0,0.1,0,0.1,0.1,0.2l2.4,6.2c0,0.1,0,0.1,0,0.1c0,0.1-0.1,0.2-0.2,0.2h-3.1c-0.1,0-0.2-0.1-0.2-0.2
			l-2.3-5.8c-0.1-0.1-0.1-0.2-0.2-0.2h-2.1c-0.2,0-0.3,0.1-0.3,0.2v5.6c0,0.2-0.1,0.2-0.2,0.2H221.8z M228,45.4
			c0.9,0,1.5-0.5,1.5-1.4v-0.4c0-0.8-0.6-1.4-1.5-1.4h-2.8c-0.2,0-0.3,0.1-0.3,0.3v2.7c0,0.1,0.1,0.2,0.3,0.2H228z"/>
	</g>
	<g>
		<path d="M156.8,54.2c-0.1,0-0.2-0.1-0.2-0.2V42.5c0-0.2-0.1-0.3-0.3-0.3h-2.8c-0.2,0-0.2-0.1-0.2-0.2v-2.4c0-0.2,0.1-0.2,0.2-0.2
			h9.5c0.1,0,0.2,0.1,0.2,0.2V42c0,0.2-0.1,0.2-0.2,0.2h-2.9c-0.2,0-0.3,0.1-0.3,0.3v11.5c0,0.2-0.1,0.2-0.2,0.2H156.8z"/>
	</g>
	<g>
		<path d="M239,54.2c-0.1,0-0.2-0.1-0.2-0.2V42.5c0-0.2-0.1-0.3-0.3-0.3h-2.8c-0.2,0-0.2-0.1-0.2-0.2v-2.4c0-0.2,0.1-0.2,0.2-0.2
			h9.5c0.1,0,0.2,0.1,0.2,0.2V42c0,0.2-0.1,0.2-0.2,0.2h-2.9c-0.2,0-0.3,0.1-0.3,0.3v11.5c0,0.2-0.1,0.2-0.2,0.2H239z"/>
	</g>
	<g>
		<path d="M166.3,54.2c-0.1,0-0.2-0.1-0.2-0.2V39.6c0-0.2,0.1-0.2,0.2-0.2h9.4c0.1,0,0.2,0.1,0.2,0.2V42c0,0.2-0.1,0.2-0.2,0.2h-6
			c-0.2,0-0.3,0.1-0.3,0.3V45c0,0.2,0.1,0.2,0.3,0.2h4.9c0.1,0,0.3,0.1,0.3,0.2v2.5c0,0.2-0.1,0.2-0.3,0.2h-4.9
			c-0.2,0-0.3,0.1-0.3,0.2V51c0,0.2,0.1,0.2,0.3,0.2h6c0.1,0,0.2,0.1,0.2,0.2v2.4c0,0.2-0.1,0.2-0.2,0.2H166.3z"/>
	</g>
	<g>
		<path d="M248.5,54.2c-0.1,0-0.2-0.1-0.2-0.2V39.6c0-0.2,0.1-0.2,0.2-0.2h9.4c0.1,0,0.2,0.1,0.2,0.2V42c0,0.2-0.1,0.2-0.2,0.2h-6
			c-0.2,0-0.3,0.1-0.3,0.3V45c0,0.2,0.1,0.2,0.3,0.2h4.9c0.1,0,0.3,0.1,0.3,0.2v2.5c0,0.2-0.1,0.2-0.3,0.2h-4.9
			c-0.2,0-0.3,0.1-0.3,0.2V51c0,0.2,0.1,0.2,0.3,0.2h6c0.1,0,0.2,0.1,0.2,0.2v2.4c0,0.2-0.1,0.2-0.2,0.2H248.5z"/>
	</g>
	<g>
		<path d="M179.8,54.2c-0.1,0-0.2-0.1-0.2-0.2V39.6c0-0.2,0.1-0.2,0.2-0.2h2.5c0.2,0,0.2,0.1,0.3,0.2l4.1,7.6c0.3,0.5,0.5,1,0.5,1.1
			h0.1c0-0.2-0.1-2.3-0.1-4.3v-4.3c0-0.2,0.1-0.2,0.2-0.2h2.8c0.1,0,0.2,0.1,0.2,0.2v14.4c0,0.2-0.1,0.2-0.2,0.2h-2.5
			c-0.1,0-0.1-0.1-0.2-0.2l-4.2-7.5c-0.3-0.5-0.5-1-0.5-1h-0.1c0,0.1,0.1,2.3,0.1,4.2v4.2c0,0.2-0.1,0.2-0.3,0.2H179.8z"/>
	</g>
	<g>
		<path d="M148.7,51.7c0.2,0,0.2,0,0.3,0.1l0.6,2.1c0,0.1,0.1,0.2,0.2,0.2h2.7c0.2,0,0.3-0.1,0.3-0.2c0,0,0-0.1,0-0.1l-0.1-0.4
			l-4.2-14c0-0.1-0.1-0.2-0.2-0.2H145c-0.2,0-0.2,0-0.2,0.2l-4.1,14l-0.1,0.4c0,0,0,0.1,0,0.1c0,0.1,0.1,0.2,0.3,0.2h2.6
			c0.1,0,0.2-0.1,0.2-0.2l0.6-2.1c0-0.1,0.1-0.1,0.3-0.1H148.7z M145.2,49.2c-0.2,0-0.2-0.1-0.2-0.2l1.4-5.2l0.1-0.3h0h0.4h0
			l0.1,0.3l1.4,5.2c0,0.2,0,0.2-0.2,0.2H145.2z"/>
	</g>
	<g>
		<path d="M214.3,51.7c0.2,0,0.2,0,0.3,0.1l0.6,2.1c0,0.1,0.1,0.2,0.2,0.2h2.7c0.2,0,0.3-0.1,0.3-0.2c0,0,0-0.1,0-0.1l-0.1-0.4
			l-4.2-14c0-0.1-0.1-0.2-0.2-0.2h-3.2c-0.1,0-0.2,0-0.2,0.2l-4.1,14l-0.1,0.4c0,0,0,0.1,0,0.1c0,0.1,0.1,0.2,0.3,0.2h2.6
			c0.1,0,0.2-0.1,0.2-0.2l0.6-2.1c0-0.1,0.1-0.1,0.3-0.1H214.3z M210.8,49.2c-0.2,0-0.2-0.1-0.2-0.2l1.4-5.2l0.1-0.3h0h0.4h0
			l0.1,0.3l1.4,5.2c0,0.2,0,0.2-0.2,0.2H210.8z"/>
	</g>
	<g>
		<path d="M106.6,59.8h1.3l-0.8,5h5.4l0.8-5h1.4l-1.8,11.5h-1.3l0.8-5.3H107l-0.8,5.3h-1.3L106.6,59.8z"/>
		<path d="M121.7,70.7c-0.2,0.1-0.4,0.2-0.7,0.3c-0.2,0.1-0.5,0.2-0.8,0.3c-0.3,0.1-0.6,0.1-0.9,0.2c-0.3,0-0.6,0.1-0.9,0.1
			c-0.5,0-0.9-0.1-1.3-0.3c-0.4-0.2-0.7-0.4-0.9-0.7c-0.2-0.3-0.4-0.7-0.5-1.1c-0.1-0.4-0.2-0.9-0.2-1.4c0-0.6,0.1-1.1,0.2-1.6
			c0.1-0.5,0.3-1,0.4-1.4c0.2-0.4,0.4-0.8,0.7-1.1c0.3-0.3,0.6-0.6,0.9-0.8c0.3-0.2,0.7-0.4,1-0.5c0.4-0.1,0.8-0.2,1.2-0.2
			c0.4,0,0.8,0.1,1.1,0.2c0.3,0.1,0.6,0.3,0.8,0.5c0.2,0.2,0.4,0.4,0.5,0.7c0.1,0.3,0.2,0.6,0.2,0.9c0,0.4-0.1,0.7-0.2,1
			s-0.3,0.5-0.4,0.7c-0.2,0.2-0.4,0.4-0.7,0.5c-0.3,0.1-0.5,0.2-0.8,0.3c-0.3,0.1-0.6,0.1-0.9,0.2c-0.3,0-0.7,0-1,0
			c-0.2,0-0.4,0-0.6,0c-0.2,0-0.3,0-0.5,0c-0.2,0-0.3,0-0.5-0.1c0,0.5,0,0.9,0,1.2c0,0.4,0.1,0.7,0.3,0.9c0.1,0.3,0.3,0.5,0.6,0.6
			c0.2,0.1,0.6,0.2,0.9,0.2c0.2,0,0.4,0,0.7,0c0.2,0,0.4-0.1,0.6-0.1c0.2-0.1,0.4-0.1,0.6-0.2c0.2-0.1,0.4-0.2,0.6-0.2L121.7,70.7z
			 M117.2,66.2c0.2,0,0.4,0,0.6,0.1c0.2,0,0.3,0,0.5,0c0.2,0,0.4,0,0.6,0c0.3,0,0.6,0,0.9-0.1c0.3,0,0.5-0.1,0.8-0.2
			c0.2-0.1,0.4-0.2,0.5-0.4c0.1-0.2,0.2-0.4,0.2-0.6c0-0.2,0-0.4-0.1-0.6c-0.1-0.2-0.2-0.3-0.3-0.4c-0.1-0.1-0.3-0.2-0.5-0.3
			c-0.2-0.1-0.4-0.1-0.6-0.1c-0.3,0-0.6,0.1-0.9,0.2s-0.5,0.3-0.7,0.5c-0.2,0.2-0.4,0.5-0.5,0.8S117.3,65.8,117.2,66.2z"/>
		<path d="M129.3,64.3c-0.3-0.2-0.6-0.3-0.9-0.4c-0.3-0.1-0.7-0.2-1.1-0.2c-0.2,0-0.4,0-0.6,0.1c-0.2,0.1-0.3,0.1-0.5,0.2
			c-0.1,0.1-0.3,0.2-0.3,0.4s-0.1,0.3-0.1,0.5c0,0.2,0.1,0.4,0.3,0.6c0.2,0.2,0.4,0.4,0.6,0.5c0.2,0.2,0.5,0.3,0.8,0.5
			s0.6,0.4,0.8,0.6c0.2,0.2,0.5,0.4,0.6,0.7c0.2,0.3,0.3,0.5,0.3,0.9c0,0.4-0.1,0.8-0.3,1.2c-0.2,0.4-0.4,0.6-0.7,0.9
			c-0.3,0.2-0.7,0.4-1.1,0.6c-0.4,0.1-0.9,0.2-1.3,0.2c-0.2,0-0.5,0-0.7-0.1c-0.2,0-0.4-0.1-0.6-0.2c-0.2-0.1-0.4-0.2-0.6-0.3
			c-0.2-0.1-0.4-0.2-0.5-0.4l0.6-1.1c0.2,0.1,0.3,0.2,0.5,0.3c0.2,0.1,0.3,0.2,0.5,0.2c0.2,0.1,0.4,0.1,0.5,0.2
			c0.2,0,0.4,0.1,0.5,0.1c0.2,0,0.5,0,0.7-0.1c0.2-0.1,0.4-0.2,0.6-0.3c0.2-0.1,0.3-0.3,0.4-0.5s0.1-0.4,0.1-0.6
			c0-0.2-0.1-0.4-0.2-0.6c-0.2-0.2-0.4-0.4-0.6-0.5c-0.2-0.2-0.5-0.3-0.8-0.5c-0.3-0.2-0.6-0.4-0.8-0.6c-0.2-0.2-0.5-0.4-0.6-0.7
			c-0.2-0.3-0.2-0.5-0.2-0.9c0-0.4,0.1-0.8,0.2-1.1c0.2-0.3,0.4-0.6,0.7-0.8c0.3-0.2,0.6-0.4,1-0.5c0.4-0.1,0.8-0.2,1.3-0.2
			c0.2,0,0.4,0,0.7,0.1c0.2,0,0.4,0.1,0.6,0.2c0.2,0.1,0.4,0.1,0.6,0.2c0.2,0.1,0.3,0.2,0.5,0.3L129.3,64.3z"/>
		<path d="M136.4,64.3c-0.3-0.2-0.6-0.3-0.9-0.4c-0.3-0.1-0.7-0.2-1.1-0.2c-0.2,0-0.4,0-0.6,0.1c-0.2,0.1-0.3,0.1-0.5,0.2
			c-0.1,0.1-0.3,0.2-0.3,0.4s-0.1,0.3-0.1,0.5c0,0.2,0.1,0.4,0.3,0.6c0.2,0.2,0.4,0.4,0.6,0.5c0.2,0.2,0.5,0.3,0.8,0.5
			s0.6,0.4,0.8,0.6c0.2,0.2,0.5,0.4,0.6,0.7c0.2,0.3,0.3,0.5,0.3,0.9c0,0.4-0.1,0.8-0.3,1.2c-0.2,0.4-0.4,0.6-0.7,0.9
			c-0.3,0.2-0.7,0.4-1.1,0.6c-0.4,0.1-0.9,0.2-1.3,0.2c-0.2,0-0.5,0-0.7-0.1c-0.2,0-0.4-0.1-0.6-0.2c-0.2-0.1-0.4-0.2-0.6-0.3
			c-0.2-0.1-0.4-0.2-0.5-0.4l0.6-1.1c0.2,0.1,0.3,0.2,0.5,0.3c0.2,0.1,0.3,0.2,0.5,0.2c0.2,0.1,0.4,0.1,0.5,0.2
			c0.2,0,0.4,0.1,0.5,0.1c0.2,0,0.5,0,0.7-0.1c0.2-0.1,0.4-0.2,0.6-0.3c0.2-0.1,0.3-0.3,0.4-0.5s0.1-0.4,0.1-0.6
			c0-0.2-0.1-0.4-0.2-0.6c-0.2-0.2-0.4-0.4-0.6-0.5c-0.2-0.2-0.5-0.3-0.8-0.5c-0.3-0.2-0.6-0.4-0.8-0.6c-0.2-0.2-0.5-0.4-0.6-0.7
			c-0.2-0.3-0.2-0.5-0.2-0.9c0-0.4,0.1-0.8,0.2-1.1c0.2-0.3,0.4-0.6,0.7-0.8c0.3-0.2,0.6-0.4,1-0.5c0.4-0.1,0.8-0.2,1.3-0.2
			c0.2,0,0.4,0,0.7,0.1c0.2,0,0.4,0.1,0.6,0.2c0.2,0.1,0.4,0.1,0.6,0.2c0.2,0.1,0.3,0.2,0.5,0.3L136.4,64.3z"/>
		<path d="M144.1,70.7c-0.2,0.1-0.4,0.2-0.7,0.3c-0.2,0.1-0.5,0.2-0.8,0.3c-0.3,0.1-0.6,0.1-0.9,0.2c-0.3,0-0.6,0.1-0.9,0.1
			c-0.5,0-0.9-0.1-1.3-0.3c-0.4-0.2-0.7-0.4-0.9-0.7c-0.2-0.3-0.4-0.7-0.5-1.1c-0.1-0.4-0.2-0.9-0.2-1.4c0-0.6,0.1-1.1,0.2-1.6
			c0.1-0.5,0.3-1,0.4-1.4c0.2-0.4,0.4-0.8,0.7-1.1c0.3-0.3,0.6-0.6,0.9-0.8c0.3-0.2,0.7-0.4,1-0.5c0.4-0.1,0.8-0.2,1.2-0.2
			c0.4,0,0.8,0.1,1.1,0.2c0.3,0.1,0.6,0.3,0.8,0.5c0.2,0.2,0.4,0.4,0.5,0.7c0.1,0.3,0.2,0.6,0.2,0.9c0,0.4-0.1,0.7-0.2,1
			s-0.3,0.5-0.4,0.7c-0.2,0.2-0.4,0.4-0.7,0.5c-0.3,0.1-0.5,0.2-0.8,0.3c-0.3,0.1-0.6,0.1-0.9,0.2c-0.3,0-0.7,0-1,0
			c-0.2,0-0.4,0-0.6,0c-0.2,0-0.3,0-0.5,0c-0.2,0-0.3,0-0.5-0.1c0,0.5,0,0.9,0,1.2c0,0.4,0.1,0.7,0.3,0.9c0.1,0.3,0.3,0.5,0.6,0.6
			c0.2,0.1,0.6,0.2,0.9,0.2c0.2,0,0.4,0,0.7,0c0.2,0,0.4-0.1,0.6-0.1c0.2-0.1,0.4-0.1,0.6-0.2c0.2-0.1,0.4-0.2,0.6-0.2L144.1,70.7z
			 M139.6,66.2c0.2,0,0.4,0,0.6,0.1c0.2,0,0.3,0,0.5,0c0.2,0,0.4,0,0.6,0c0.3,0,0.6,0,0.9-0.1c0.3,0,0.5-0.1,0.8-0.2
			c0.2-0.1,0.4-0.2,0.5-0.4c0.1-0.2,0.2-0.4,0.2-0.6c0-0.2,0-0.4-0.1-0.6c-0.1-0.2-0.2-0.3-0.3-0.4c-0.1-0.1-0.3-0.2-0.5-0.3
			c-0.2-0.1-0.4-0.1-0.6-0.1c-0.3,0-0.6,0.1-0.9,0.2s-0.5,0.3-0.7,0.5c-0.2,0.2-0.4,0.5-0.5,0.8S139.7,65.8,139.6,66.2z"/>
		<path d="M151.4,71.3l0.8-5.1c0.1-0.3,0.1-0.7,0.1-1c0-0.3-0.1-0.6-0.2-0.8c-0.1-0.2-0.3-0.4-0.5-0.5c-0.2-0.1-0.5-0.2-0.9-0.2
			c-0.3,0-0.5,0-0.8,0.1c-0.3,0.1-0.5,0.2-0.7,0.4c-0.2,0.2-0.4,0.3-0.6,0.5c-0.2,0.2-0.3,0.4-0.4,0.7l-0.9,5.9H146l1.3-8.6h1l0,1
			c0.1-0.2,0.3-0.3,0.5-0.5c0.2-0.2,0.4-0.3,0.6-0.4s0.5-0.2,0.7-0.3s0.5-0.1,0.8-0.1c0.5,0,1,0.1,1.3,0.3s0.6,0.4,0.8,0.7
			s0.3,0.7,0.3,1.1c0,0.4,0,0.9-0.1,1.4l-0.8,5.3H151.4z"/>
	</g>
</g>
</svg>
