<?xml version="1.0" encoding="utf-8"?>
<!-- Generator: Adobe Illustrator 16.0.4, SVG Export Plug-In . SVG Version: 6.00 Build 0)  -->
<!DOCTYPE svg PUBLIC "-//W3C//DTD SVG 1.1//EN" "http://www.w3.org/Graphics/SVG/1.1/DTD/svg11.dtd">
<svg version="1.1" id="Layer_1" xmlns="http://www.w3.org/2000/svg" xmlns:xlink="http://www.w3.org/1999/xlink" x="0px" y="0px"
	 width="1629.836px" height="679.465px" viewBox="0 0 1629.836 679.465" enable-background="new 0 0 1629.836 679.465"
	 xml:space="preserve">
<g>
	<path fill="#FFFFFF" d="M594.506,339.729c0,140.709-114.058,254.782-254.781,254.782c-140.701,0-254.769-114.072-254.769-254.782
		c0-140.701,114.067-254.772,254.769-254.772C480.448,84.956,594.506,199.027,594.506,339.729z"/>
	<path fill="#FF8800" d="M581.065,339.729c0,133.293-108.045,241.348-241.341,241.348c-133.279,0-241.331-108.055-241.331-241.348
		c0-133.285,108.052-241.331,241.331-241.331C473.021,98.397,581.065,206.443,581.065,339.729z"/>
	<g>
		<path fill="#FFFFFF" d="M339.594,156.111c-101.358,0-183.482,82.39-183.482,183.758c0,101.351,82.124,183.751,183.482,183.751
			c101.345,0,183.757-82.4,183.757-183.751C523.351,238.519,440.938,156.111,339.594,156.111L339.594,156.111z"/>
		<path fill="#FFFFFF" d="M339.594,169.912c-93.739,0-169.676,76.197-169.676,169.957c0,93.733,75.937,169.938,169.676,169.938
			c93.731,0,169.952-76.205,169.952-169.938C509.546,246.126,433.325,169.912,339.594,169.912L339.594,169.912z"/>
		<path fill="#1D1D1B" d="M291.504,382.127c2.098-1.143,4.346-2.213,6.695-3.232c27.987-12.062,41.837-33.271,41.837-59.375
			c0-25.881-19.126-48.435-48.532-56.322V382.127L291.504,382.127z M347.732,244.37c62.26,1.932,98.457,30.257,98.457,71.805
			c0,37.98-23.481,58.767-100.762,72.48c-57.563,10.227-72.794,24.108-72.794,47.812c0,14.522,4.853,25.646,13.348,35.608
			c-12.931-8.118-23.323-24.883-23.323-43.857c0-11.658,3.444-22.712,11.255-32.059V260.376c-1.921-0.123-3.861-0.184-5.848-0.184
			c-0.862,0-1.701,0.035-2.521,0.087c-1.05,0.07-1.374-1.15-0.271-1.626c2.665-1.115,5.556-2.213,8.641-3.249v-28.537
			c0-0.589,0.465-1.062,1.054-1.062h15.478c0.577,0,1.06,0.474,1.06,1.062v23.659C309.994,246.284,331.132,243.851,347.732,244.37
			L347.732,244.37z"/>
		<path fill="#1D1D1B" d="M339.602,186.2c84.925,0,153.646,68.748,153.646,153.668c0,84.913-68.722,153.651-153.646,153.651
			c-84.899,0-153.388-68.738-153.388-153.651C186.214,254.948,254.702,186.2,339.602,186.2L339.602,186.2z M339.594,169.912
			c-93.739,0-169.676,76.197-169.676,169.957c0,93.733,75.937,169.938,169.676,169.938c93.731,0,169.952-76.205,169.952-169.938
			C509.546,246.126,433.325,169.912,339.594,169.912L339.594,169.912z"/>
	</g>
	<path d="M666.561,289.581c5.265,0,8.653-3.04,8.653-7.292v-3.208c0-4.234-3.389-7.626-8.653-7.626H654.02
		c-1.185,0-1.521,0.493-1.521,1.512v15.269c0,0.844,0.336,1.345,1.521,1.345H666.561z M634.674,339.931
		c-0.678,0-1.171-0.325-1.171-1.354v-82.224c0-1.028,0.493-1.343,1.171-1.343h31.387c16.602,0,27.616,8.635,27.616,23.905v4.393
		c0,13.222-11.34,21.858-27.616,21.858H654.02c-1.185,0-1.521,0.537-1.521,1.38v32.032c0,1.028-0.52,1.354-1.358,1.354H634.674z"/>
	<path d="M712.167,339.931c-0.664,0-1.185-0.325-1.185-1.354v-82.224c0-1.028,0.521-1.343,1.185-1.343h16.443
		c0.507,0,1.372,0.315,1.372,1.343v82.224c0,1.028-0.499,1.354-1.372,1.354H712.167z"/>
	<path d="M792.364,289.581c5.084,0,8.646-3.04,8.646-7.793v-2.205c0-4.735-3.379-8.127-8.646-8.127h-16.117
		c-1.185,0-1.504,0.493-1.504,1.512v15.269c0,0.844,0.319,1.345,1.504,1.345H792.364z M756.928,339.931
		c-0.675,0-1.175-0.325-1.175-1.354v-82.224c0-1.028,0.5-1.343,1.175-1.343h35.437c16.605,0,27.473,9.821,27.473,25.758v1.187
		c0,8.125-4.426,14.927-10.516,18.291c-0.701,0.369-1.023,0.888-1.023,1.362c0,0.528,0.178,0.853,0.322,1.372l13.75,35.282
		c0,0.316,0.174,0.474,0.174,0.659c0,0.511-0.325,1.011-1.369,1.011h-17.467c-0.496,0-1.003-0.325-1.201-1.011l-13.018-32.884
		c-0.342-0.685-0.681-0.871-1.194-0.871h-12.048c-1.185,0-1.504,0.537-1.504,1.38v32.032c0,1.028-0.523,1.354-1.349,1.354H756.928z"
		/>
	<path d="M925.781,339.931c-0.667,0-1.167-0.325-1.167-1.354v-65.61c0-1.019-0.35-1.512-1.708-1.512h-16.081
		c-0.869,0-1.373-0.334-1.373-1.203v-13.899c0-1.028,0.504-1.343,1.373-1.343h54.588c0.312,0,1.191,0.315,1.191,1.343v13.899
		c0,0.869-0.527,1.203-1.191,1.203H945.11c-1.359,0-1.671,0.493-1.671,1.512v65.61c0,1.028-0.51,1.354-1.211,1.354H925.781z"/>
	<path d="M980.051,339.931c-0.698,0-1.194-0.325-1.194-1.354v-82.224c0-1.028,0.496-1.343,1.194-1.343h53.742
		c0.678,0,1.376,0.315,1.376,1.343v13.899c0,0.869-0.527,1.203-1.376,1.203H999.39c-1.197,0-1.547,0.493-1.547,1.512V287.2
		c0,0.877,0.35,1.353,1.547,1.353h28.294c0.698,0,1.543,0.369,1.543,1.194v14.066c0,1.037-0.845,1.352-1.543,1.352H999.39
		c-1.197,0-1.547,0.537-1.547,1.38v15.418c0,0.853,0.35,1.354,1.547,1.354h34.403c0.678,0,1.376,0.333,1.376,1.371v13.89
		c0,1.028-0.527,1.354-1.376,1.354H980.051z"/>
	<path d="M1057.376,339.931c-0.701,0-1.201-0.325-1.201-1.354v-82.224c0-1.028,0.5-1.343,1.201-1.343h14.22
		c0.899,0,1.372,0.315,1.724,1.009l23.523,43.56c1.547,2.881,2.748,5.939,2.896,6.29h0.5c0-1.019-0.5-13.222-0.5-24.775v-24.741
		c0-1.028,0.353-1.343,1.171-1.343h15.775c0.688,0,1.369,0.315,1.369,1.343v82.224c0,1.028-0.503,1.354-1.375,1.354h-14.223
		c-0.5,0-0.85-0.325-1.346-1.011l-23.754-42.9c-1.517-2.714-2.715-5.586-2.715-5.746h-0.5c0,0.826,0.698,13.214,0.698,24.064v24.239
		c0,1.028-0.698,1.354-1.521,1.354H1057.376z"/>
	<path d="M859.293,311.527c-1.171,0-1.349-0.511-1.349-1.362l7.773-29.765l0.315-1.538h0.098h2.046h0.088l0.339,1.538l7.771,29.765
		c0,0.851-0.164,1.362-1.355,1.362H859.293z M879.256,325.882c1.023,0,1.349,0.167,1.523,0.835l3.479,12.202
		c0.164,0.686,0.69,1.011,1.335,1.011h15.316c0.989,0,1.486-0.325,1.503-0.957c0-0.186-0.067-0.493-0.145-0.713l-0.61-2.117
		l-23.862-80.186c-0.215-0.694-0.523-0.852-1.358-0.852h-18.366c-0.858,0-1.171,0.185-1.369,0.852L833.2,336.144l-0.588,2.117
		c-0.113,0.254-0.141,0.527-0.141,0.713c0.027,0.632,0.5,0.957,1.496,0.957h14.823c0.671,0,1.171-0.325,1.362-1.011l3.482-12.202
		c0.158-0.668,0.49-0.835,1.521-0.835H879.256z"/>
	<path d="M666.561,289.581c5.265,0,8.653-3.04,8.653-7.292v-3.208c0-4.234-3.389-7.626-8.653-7.626H654.02
		c-1.185,0-1.521,0.493-1.521,1.512v15.269c0,0.844,0.336,1.345,1.521,1.345H666.561z M634.674,339.931
		c-0.678,0-1.171-0.325-1.171-1.354v-82.224c0-1.028,0.493-1.343,1.171-1.343h31.387c16.602,0,27.616,8.635,27.616,23.905v4.393
		c0,13.222-11.34,21.858-27.616,21.858H654.02c-1.185,0-1.521,0.537-1.521,1.38v32.032c0,1.028-0.52,1.354-1.358,1.354H634.674z"/>
	<path d="M1178.846,289.581c5.261,0,8.649-3.04,8.649-7.292v-3.208c0-4.234-3.389-7.626-8.649-7.626h-12.545
		c-1.185,0-1.517,0.493-1.517,1.512v15.269c0,0.844,0.332,1.345,1.517,1.345H1178.846z M1146.955,339.931
		c-0.678,0-1.171-0.325-1.171-1.354v-82.224c0-1.028,0.493-1.343,1.171-1.343h31.388c16.601,0,27.615,8.635,27.615,23.905v4.393
		c0,13.222-11.34,21.858-27.615,21.858h-12.042c-1.185,0-1.517,0.537-1.517,1.38v32.032c0,1.028-0.527,1.354-1.359,1.354H1146.955z"
		/>
	<path d="M712.167,339.931c-0.664,0-1.185-0.325-1.185-1.354v-82.224c0-1.028,0.521-1.343,1.185-1.343h16.443
		c0.507,0,1.372,0.315,1.372,1.343v82.224c0,1.028-0.499,1.354-1.372,1.354H712.167z"/>
	<path d="M1527.064,339.931c-0.664,0-1.188-0.325-1.188-1.354v-82.224c0-1.028,0.523-1.343,1.188-1.343h16.44
		c0.51,0,1.375,0.315,1.375,1.343v82.224c0,1.028-0.5,1.354-1.375,1.354H1527.064z"/>
	<path d="M792.364,289.581c5.084,0,8.646-3.04,8.646-7.793v-2.205c0-4.735-3.379-8.127-8.646-8.127h-16.117
		c-1.185,0-1.504,0.493-1.504,1.512v15.269c0,0.844,0.319,1.345,1.504,1.345H792.364z M756.928,339.931
		c-0.675,0-1.175-0.325-1.175-1.354v-82.224c0-1.028,0.5-1.343,1.175-1.343h35.437c16.605,0,27.473,9.821,27.473,25.758v1.187
		c0,8.125-4.426,14.927-10.516,18.291c-0.701,0.369-1.023,0.888-1.023,1.362c0,0.528,0.178,0.853,0.322,1.372l13.75,35.282
		c0,0.316,0.174,0.474,0.174,0.659c0,0.511-0.325,1.011-1.369,1.011h-17.467c-0.496,0-1.003-0.325-1.201-1.011l-13.018-32.884
		c-0.342-0.685-0.681-0.871-1.194-0.871h-12.048c-1.185,0-1.504,0.537-1.504,1.38v32.032c0,1.028-0.523,1.354-1.349,1.354H756.928z"
		/>
	<path d="M1332.624,289.581c5.084,0,8.646-3.04,8.646-7.793v-2.205c0-4.735-3.379-8.127-8.646-8.127h-16.114
		c-1.188,0-1.507,0.493-1.507,1.512v15.269c0,0.844,0.319,1.345,1.507,1.345H1332.624z M1297.188,339.931
		c-0.675,0-1.174-0.325-1.174-1.354v-82.224c0-1.028,0.499-1.343,1.174-1.343h35.437c16.605,0,27.476,9.821,27.476,25.758v1.187
		c0,8.125-4.433,14.927-10.519,18.291c-0.701,0.369-1.023,0.888-1.023,1.362c0,0.528,0.175,0.853,0.322,1.372l13.746,35.282
		c0,0.316,0.178,0.474,0.178,0.659c0,0.511-0.325,1.011-1.369,1.011h-17.467c-0.496,0-0.999-0.325-1.201-1.011l-13.018-32.884
		c-0.342-0.685-0.681-0.871-1.197-0.871h-12.042c-1.188,0-1.507,0.537-1.507,1.38v32.032c0,1.028-0.526,1.354-1.349,1.354H1297.188z
		"/>
	<path d="M925.781,339.931c-0.667,0-1.167-0.325-1.167-1.354v-65.61c0-1.019-0.35-1.512-1.708-1.512h-16.081
		c-0.869,0-1.373-0.334-1.373-1.203v-13.899c0-1.028,0.504-1.343,1.373-1.343h54.588c0.312,0,1.191,0.315,1.191,1.343v13.899
		c0,0.869-0.527,1.203-1.191,1.203H945.11c-1.359,0-1.671,0.493-1.671,1.512v65.61c0,1.028-0.51,1.354-1.211,1.354H925.781z"/>
	<path d="M1395.667,339.931c-0.674,0-1.17-0.325-1.17-1.354v-65.61c0-1.019-0.35-1.512-1.708-1.512h-16.081
		c-0.869,0-1.369-0.334-1.369-1.203v-13.899c0-1.028,0.5-1.343,1.369-1.343h54.588c0.312,0,1.19,0.315,1.19,1.343v13.899
		c0,0.869-0.526,1.203-1.19,1.203h-16.303c-1.359,0-1.674,0.493-1.674,1.512v65.61c0,1.028-0.507,1.354-1.209,1.354H1395.667z"/>
	<path d="M980.051,339.931c-0.698,0-1.194-0.325-1.194-1.354v-82.224c0-1.028,0.496-1.343,1.194-1.343h53.742
		c0.678,0,1.376,0.315,1.376,1.343v13.899c0,0.869-0.527,1.203-1.376,1.203H999.39c-1.197,0-1.547,0.493-1.547,1.512V287.2
		c0,0.877,0.35,1.353,1.547,1.353h28.294c0.698,0,1.543,0.369,1.543,1.194v14.066c0,1.037-0.845,1.352-1.543,1.352H999.39
		c-1.197,0-1.547,0.537-1.547,1.38v15.418c0,0.853,0.35,1.354,1.547,1.354h34.403c0.678,0,1.376,0.333,1.376,1.371v13.89
		c0,1.028-0.527,1.354-1.376,1.354H980.051z"/>
	<path d="M1449.843,339.931c-0.698,0-1.194-0.325-1.194-1.354v-82.224c0-1.028,0.496-1.343,1.194-1.343h53.742
		c0.675,0,1.376,0.315,1.376,1.343v13.899c0,0.869-0.53,1.203-1.376,1.203h-34.403c-1.198,0-1.55,0.493-1.55,1.512V287.2
		c0,0.877,0.352,1.353,1.55,1.353h28.294c0.694,0,1.543,0.369,1.543,1.194v14.066c0,1.037-0.849,1.352-1.543,1.352h-28.294
		c-1.198,0-1.55,0.537-1.55,1.38v15.418c0,0.853,0.352,1.354,1.55,1.354h34.403c0.675,0,1.376,0.333,1.376,1.371v13.89
		c0,1.028-0.53,1.354-1.376,1.354H1449.843z"/>
	<path d="M1057.376,339.931c-0.701,0-1.201-0.325-1.201-1.354v-82.224c0-1.028,0.5-1.343,1.201-1.343h14.22
		c0.899,0,1.372,0.315,1.724,1.009l23.523,43.56c1.547,2.881,2.748,5.939,2.896,6.29h0.5c0-1.019-0.5-13.222-0.5-24.775v-24.741
		c0-1.028,0.353-1.343,1.171-1.343h15.775c0.688,0,1.369,0.315,1.369,1.343v82.224c0,1.028-0.503,1.354-1.375,1.354h-14.223
		c-0.5,0-0.85-0.325-1.346-1.011l-23.754-42.9c-1.517-2.714-2.715-5.586-2.715-5.746h-0.5c0,0.826,0.698,13.214,0.698,24.064v24.239
		c0,1.028-0.698,1.354-1.521,1.354H1057.376z"/>
	<path d="M859.293,311.527c-1.171,0-1.349-0.511-1.349-1.362l7.773-29.765l0.315-1.538h0.098h2.046h0.088l0.339,1.538l7.771,29.765
		c0,0.851-0.164,1.362-1.355,1.362H859.293z M879.256,325.882c1.023,0,1.349,0.167,1.523,0.835l3.479,12.202
		c0.164,0.686,0.69,1.011,1.335,1.011h15.316c0.989,0,1.486-0.325,1.503-0.957c0-0.186-0.067-0.493-0.145-0.713l-0.61-2.117
		l-23.862-80.186c-0.215-0.694-0.523-0.852-1.358-0.852h-18.366c-0.858,0-1.171,0.185-1.369,0.852L833.2,336.144l-0.588,2.117
		c-0.113,0.254-0.141,0.527-0.141,0.713c0.027,0.632,0.5,0.957,1.496,0.957h14.823c0.671,0,1.171-0.325,1.362-1.011l3.482-12.202
		c0.158-0.668,0.49-0.835,1.521-0.835H879.256z"/>
	<path d="M1234.607,311.527c-1.174,0-1.349-0.511-1.349-1.362l7.774-29.765l0.315-1.538h0.097h2.047h0.087l0.339,1.538l7.771,29.765
		c0,0.851-0.161,1.362-1.355,1.362H1234.607z M1254.571,325.882c1.022,0,1.348,0.167,1.522,0.835l3.479,12.202
		c0.161,0.686,0.688,1.011,1.336,1.011h15.315c0.99,0,1.49-0.325,1.507-0.957c0-0.186-0.067-0.493-0.147-0.713l-0.611-2.117
		l-23.861-80.186c-0.215-0.694-0.523-0.852-1.355-0.852h-18.366c-0.862,0-1.174,0.185-1.372,0.852l-23.503,80.186l-0.587,2.117
		c-0.114,0.254-0.141,0.527-0.141,0.713c0.026,0.632,0.5,0.957,1.499,0.957h14.82c0.671,0,1.174-0.325,1.362-1.011l3.482-12.202
		c0.157-0.668,0.493-0.835,1.52-0.835H1254.571z"/>
	<g>
		<path fill="#FF8800" d="M638.881,369.749h18c19.883,0,27.532,11.07,27.532,25.645c0,26.91-15.836,39.957-38.604,39.957h-17.098
			L638.881,369.749z M645.541,376.408l-8.1,52.283h10.257c19.711,0,28.26-12.511,28.26-31.312c0-11.43-5.404-20.972-21.06-20.972
			H645.541z"/>
		<path fill="#FF8800" d="M707.89,436.608c-11.699,0-16.377-8.277-16.377-19.979c0-19.795,11.424-31.762,25.19-31.762
			c9.089,0,14.759,5.58,14.759,12.959c0,12.959-11.695,15.568-23.214,15.568c-4.408,0-8.64-0.721-8.64-0.721
			c-1.083,10.613,1.708,17.098,10.17,17.098c5.217,0,9.988-1.354,14.665-3.418l1.711,5.58
			C721.478,434.446,714.814,436.608,707.89,436.608z M710.405,407.096c7.382,0,13.498-2.073,13.498-7.74
			c0-5.043-3.869-7.555-9.176-7.555c-7.201,0-11.696,5.842-13.947,14.574C700.78,406.375,706.266,407.096,710.405,407.096z"/>
		<path fill="#FF8800" d="M767.627,435.35l0.54-5.314c-2.791,3.69-9.089,6.572-15.121,6.572c-9.535,0-15.836-6.116-13.947-18.451
			l4.952-32.031h7.2l-4.681,30.688c-1.352,9.084,2.07,12.959,8.371,12.959c5.663,0,11.065-3.418,14.212-7.652l5.58-35.994h7.287
			l-7.646,49.225H767.627z"/>
		<path fill="#FF8800" d="M813.952,434.27c-2.517,1.529-6.566,2.338-9.268,2.338c-9.357,0-12.236-5.668-10.619-16.29l4.231-27.806
			h-8.1l0.812-4.946l8.277-1.44l3.061-13.943h6.388l-2.157,13.943h14.487l-0.993,6.387h-14.487l-4.228,27.357
			c-0.99,6.125-0.271,9.902,4.949,9.902c1.801,0,4.771-0.545,6.479-1.081L813.952,434.27z"/>
		<path fill="#FF8800" d="M854.619,395.034c-3.328-1.978-6.929-3.33-11.519-3.33c-4.408,0-8.82,2.435-8.82,6.748
			c0,8.188,19.259,10.262,19.259,21.866c0,10.077-8.999,16.29-19.886,16.29c-5.398,0-10.348-1.803-14.125-5.133l3.596-6.025
			c3.51,2.521,7.646,4.322,11.878,4.322c5.492,0,10.438-3.242,10.438-8.373c0-8.1-19.255-10.165-19.255-21.771
			c0-9.005,7.831-14.76,18.266-14.76c4.951,0,10.35,1.977,13.406,4.323L854.619,395.034z"/>
		<path fill="#FF8800" d="M900.41,394.584c-2.966-1.801-7.288-2.881-11.337-2.881c-8.368,0-17.275,7.02-17.275,22.771
			c0,8.812,4.14,15.297,12.235,15.297c3.778,0,8.73-1.266,12.059-2.971l1.353,5.756c-3.872,2.345-10.26,4.051-15.394,4.051
			c-13.045,0-18.262-9.719-18.262-20.244c0-20.425,12.504-31.496,27.264-31.496c4.681,0,9.18,1.258,12.508,3.777L900.41,394.584z"/>
		<path fill="#FF8800" d="M943.503,435.35h-7.193l4.405-29.16c1.353-7.914,0.272-14.486-7.736-14.486
			c-5.849,0-11.79,5.219-14.22,9.901l-5.217,33.745h-7.2l10.528-68.387h7.287l-3.868,24.925c4.948-4.956,9.18-7.021,14.669-7.021
			c11.873,0,15.118,8.102,13.316,19.707L943.503,435.35z"/>
		<path fill="#FF8800" d="M968.328,366.963h7.287l-10.619,68.387H957.8L968.328,366.963z"/>
		<path fill="#FF8800" d="M1011.787,425.45c-3.872,6.484-9.539,11.158-17.007,11.158c-10.707,0-14.941-8.549-14.941-19.074
			c0-17.457,8.462-32.666,24.208-32.666c4.861,0,10.528,1.705,12.957,5.668l1.439-4.41h5.67l-5.039,27.086l-0.902,22.139h-6.113
			L1011.787,425.45z M1011.787,413.036l3.147-14.312c-2.161-4.77-7.741-7.02-12.958-7.02c-9.357,0-14.034,12.062-14.034,23.844
			c0,6.932,2.157,14.225,8.729,14.225C1002.43,429.772,1009.177,421.759,1011.787,413.036z"/>
		<path fill="#FF8800" d="M1061.533,435.35l4.503-29.16c1.258-7.914,0.181-14.389-8.1-14.389c-6.029,0-11.786,4.586-14.487,9.804
			l-5.221,33.745h-7.196l7.559-49.225h5.758l0.087,6.026c3.244-3.866,8.908-7.284,15.571-7.284c12.148,0,15.387,8.102,13.494,19.98
			l-4.674,30.502H1061.533z"/>
		<path fill="#FF8800" d="M1115.786,425.177c-3.778,6.659-9.357,11.431-17.008,11.431c-10.706,0-14.939-8.549-14.939-19.074
			c0-17.457,8.461-32.666,24.207-32.666c4.321,0,9.267,1.889,11.431,4.771l3.415-22.676h7.379l-7.197,46.248l-0.902,22.139h-6.113
			L1115.786,425.177z M1115.967,411.506l2.067-12.783c-2.154-4.77-6.842-7.02-12.059-7.02c-9.357,0-14.035,12.062-14.035,23.844
			c0,6.932,2.154,14.225,8.73,14.225C1106.787,429.772,1113.716,420.864,1115.967,411.506z"/>
	</g>
</g>
</svg>
