<?xml version="1.0" encoding="utf-8"?>
<!-- Generator: Adobe Illustrator 16.0.4, SVG Export Plug-In . SVG Version: 6.00 Build 0)  -->
<!DOCTYPE svg PUBLIC "-//W3C//DTD SVG 1.1//EN" "http://www.w3.org/Graphics/SVG/1.1/DTD/svg11.dtd">
<svg version="1.1" id="Layer_1" xmlns="http://www.w3.org/2000/svg" xmlns:xlink="http://www.w3.org/1999/xlink" x="0px" y="0px"
	 width="1629.863px" height="679.467px" viewBox="0 0 1629.863 679.467" enable-background="new 0 0 1629.863 679.467"
	 xml:space="preserve">
<g>
	<path fill="#FFFFFF" d="M594.506,339.729c0,140.709-114.058,254.782-254.781,254.782c-140.701,0-254.769-114.072-254.769-254.782
		c0-140.701,114.067-254.772,254.769-254.772C480.448,84.956,594.506,199.027,594.506,339.729z"/>
	<path fill="#FF8800" d="M581.065,339.729c0,133.293-108.045,241.348-241.341,241.348c-133.279,0-241.331-108.055-241.331-241.348
		c0-133.285,108.052-241.331,241.331-241.331C473.021,98.397,581.065,206.443,581.065,339.729z"/>
	<g>
		<path fill="#FFFFFF" d="M339.594,156.111c-101.358,0-183.482,82.39-183.482,183.758c0,101.351,82.124,183.751,183.482,183.751
			c101.345,0,183.757-82.4,183.757-183.751C523.351,238.519,440.938,156.111,339.594,156.111L339.594,156.111z"/>
		<path fill="#FFFFFF" d="M339.594,169.912c-93.739,0-169.676,76.197-169.676,169.957c0,93.733,75.937,169.938,169.676,169.938
			c93.731,0,169.952-76.205,169.952-169.938C509.546,246.126,433.325,169.912,339.594,169.912L339.594,169.912z"/>
		<path fill="#1D1D1B" d="M291.504,382.127c2.098-1.143,4.346-2.213,6.695-3.232c27.987-12.062,41.837-33.271,41.837-59.375
			c0-25.881-19.126-48.435-48.532-56.322V382.127L291.504,382.127z M347.732,244.37c62.26,1.932,98.457,30.257,98.457,71.805
			c0,37.98-23.481,58.767-100.762,72.48c-57.563,10.227-72.794,24.108-72.794,47.812c0,14.522,4.853,25.646,13.348,35.608
			c-12.931-8.118-23.323-24.883-23.323-43.857c0-11.658,3.444-22.712,11.255-32.059V260.376c-1.921-0.123-3.861-0.184-5.848-0.184
			c-0.862,0-1.701,0.035-2.521,0.087c-1.05,0.07-1.374-1.15-0.271-1.626c2.665-1.115,5.556-2.213,8.641-3.249v-28.537
			c0-0.589,0.465-1.062,1.054-1.062h15.478c0.577,0,1.06,0.474,1.06,1.062v23.659C309.994,246.284,331.132,243.851,347.732,244.37
			L347.732,244.37z"/>
		<path fill="#1D1D1B" d="M339.602,186.2c84.925,0,153.646,68.748,153.646,153.668c0,84.913-68.722,153.651-153.646,153.651
			c-84.899,0-153.388-68.738-153.388-153.651C186.214,254.948,254.702,186.2,339.602,186.2L339.602,186.2z M339.594,169.912
			c-93.739,0-169.676,76.197-169.676,169.957c0,93.733,75.937,169.938,169.676,169.938c93.731,0,169.952-76.205,169.952-169.938
			C509.546,246.126,433.325,169.912,339.594,169.912L339.594,169.912z"/>
	</g>
	<path d="M695.682,324.893c9.902,0,16.276-5.718,16.276-13.715v-6.033c0-7.965-6.374-14.345-16.276-14.345h-23.589
		c-2.228,0-2.86,0.928-2.86,2.844v28.72c0,1.587,0.632,2.529,2.86,2.529H695.682z M635.705,419.598
		c-1.275,0-2.202-0.611-2.202-2.546V262.394c0-1.933,0.927-2.526,2.202-2.526h59.037c31.226,0,51.944,16.242,51.944,44.964v8.262
		c0,24.869-21.33,41.113-51.944,41.113h-22.648c-2.228,0-2.86,1.01-2.86,2.595v60.251c0,1.935-0.977,2.546-2.555,2.546H635.705z"/>
	<path d="M781.464,419.598c-1.249,0-2.228-0.611-2.228-2.546V262.394c0-1.933,0.979-2.526,2.228-2.526h30.929
		c0.954,0,2.581,0.594,2.581,2.526v154.658c0,1.935-0.938,2.546-2.581,2.546H781.464z"/>
	<path d="M932.31,324.893c9.563,0,16.264-5.718,16.264-14.658v-4.148c0-8.906-6.355-15.286-16.264-15.286h-30.315
		c-2.228,0-2.828,0.928-2.828,2.844v28.72c0,1.587,0.601,2.529,2.828,2.529H932.31z M865.656,419.598
		c-1.269,0-2.21-0.611-2.21-2.546V262.394c0-1.933,0.941-2.526,2.21-2.526h66.653c31.234,0,51.675,18.474,51.675,48.449v2.233
		c0,15.282-8.325,28.076-19.779,34.403c-1.318,0.694-1.926,1.671-1.926,2.561c0,0.994,0.335,1.604,0.607,2.581l25.861,66.362
		c0,0.595,0.327,0.892,0.327,1.238c0,0.961-0.611,1.902-2.575,1.902h-32.854c-0.933,0-1.887-0.611-2.26-1.902l-24.484-61.852
		c-0.644-1.287-1.28-1.638-2.246-1.638h-22.662c-2.228,0-2.828,1.01-2.828,2.595v60.251c0,1.935-0.984,2.546-2.537,2.546H865.656z"
		/>
	<path d="M1183.258,419.598c-1.255,0-2.195-0.611-2.195-2.546V293.644c0-1.916-0.658-2.844-3.213-2.844h-30.247
		c-1.635,0-2.583-0.628-2.583-2.262v-26.145c0-1.933,0.948-2.526,2.583-2.526h102.676c0.586,0,2.241,0.594,2.241,2.526v26.145
		c0,1.634-0.992,2.262-2.241,2.262h-30.664c-2.557,0-3.143,0.928-3.143,2.844v123.408c0,1.935-0.96,2.546-2.278,2.546H1183.258z"/>
	<path d="M1285.335,419.598c-1.313,0-2.247-0.611-2.247-2.546V262.394c0-1.933,0.934-2.526,2.247-2.526h101.085
		c1.274,0,2.588,0.594,2.588,2.526v26.145c0,1.634-0.992,2.262-2.588,2.262h-64.71c-2.252,0-2.91,0.928-2.91,2.844v26.771
		c0,1.65,0.658,2.545,2.91,2.545h53.219c1.312,0,2.902,0.694,2.902,2.247v26.457c0,1.949-1.59,2.543-2.902,2.543h-53.219
		c-2.252,0-2.91,1.01-2.91,2.595v29.001c0,1.605,0.658,2.547,2.91,2.547h64.71c1.274,0,2.588,0.627,2.588,2.578v26.125
		c0,1.935-0.992,2.546-2.588,2.546H1285.335z"/>
	<path d="M1430.778,419.598c-1.319,0-2.26-0.611-2.26-2.546V262.394c0-1.933,0.94-2.526,2.26-2.526h26.745
		c1.692,0,2.582,0.594,3.242,1.898l44.246,81.933c2.91,5.42,5.17,11.172,5.446,11.831h0.941c0-1.917-0.941-24.869-0.941-46.6
		v-46.536c0-1.933,0.663-2.526,2.203-2.526h29.672c1.295,0,2.575,0.594,2.575,2.526v154.658c0,1.935-0.945,2.546-2.586,2.546
		h-26.752c-0.94,0-1.598-0.611-2.531-1.902l-44.68-80.691c-2.853-5.104-5.105-10.507-5.105-10.808h-0.941
		c0,1.555,1.313,24.855,1.313,45.263v45.593c0,1.935-1.313,2.546-2.86,2.546H1430.778z"/>
	<path d="M1058.197,366.083c-2.201,0-2.536-0.961-2.536-2.562l14.621-55.985l0.593-2.893h0.185h3.848h0.166l0.637,2.893
		l14.616,55.985c0,1.602-0.309,2.562-2.55,2.562H1058.197z M1095.747,393.083c1.925,0,2.536,0.314,2.864,1.571l6.545,22.951
		c0.31,1.291,1.299,1.902,2.512,1.902h28.809c1.86,0,2.796-0.611,2.827-1.8c0-0.35-0.127-0.928-0.271-1.341l-1.148-3.982
		l-44.883-150.823c-0.405-1.306-0.985-1.603-2.555-1.603H1055.9c-1.615,0-2.203,0.348-2.575,1.603l-44.206,150.823l-1.105,3.982
		c-0.213,0.478-0.265,0.991-0.265,1.341c0.052,1.188,0.94,1.8,2.813,1.8h27.882c1.263,0,2.202-0.611,2.563-1.902l6.549-22.951
		c0.298-1.257,0.922-1.571,2.86-1.571H1095.747z"/>
	<path d="M695.682,324.893c9.902,0,16.276-5.718,16.276-13.715v-6.033c0-7.965-6.374-14.345-16.276-14.345h-23.589
		c-2.228,0-2.86,0.928-2.86,2.844v28.72c0,1.587,0.632,2.529,2.86,2.529H695.682z M635.705,419.598
		c-1.275,0-2.202-0.611-2.202-2.546V262.394c0-1.933,0.927-2.526,2.202-2.526h59.037c31.226,0,51.944,16.242,51.944,44.964v8.262
		c0,24.869-21.33,41.113-51.944,41.113h-22.648c-2.228,0-2.86,1.01-2.86,2.595v60.251c0,1.935-0.977,2.546-2.555,2.546H635.705z"/>
	<path d="M781.464,419.598c-1.249,0-2.228-0.611-2.228-2.546V262.394c0-1.933,0.979-2.526,2.228-2.526h30.929
		c0.954,0,2.581,0.594,2.581,2.526v154.658c0,1.935-0.938,2.546-2.581,2.546H781.464z"/>
	<path d="M932.31,324.893c9.563,0,16.264-5.718,16.264-14.658v-4.148c0-8.906-6.355-15.286-16.264-15.286h-30.315
		c-2.228,0-2.828,0.928-2.828,2.844v28.72c0,1.587,0.601,2.529,2.828,2.529H932.31z M865.656,419.598
		c-1.269,0-2.21-0.611-2.21-2.546V262.394c0-1.933,0.941-2.526,2.21-2.526h66.653c31.234,0,51.675,18.474,51.675,48.449v2.233
		c0,15.282-8.325,28.076-19.779,34.403c-1.318,0.694-1.926,1.671-1.926,2.561c0,0.994,0.335,1.604,0.607,2.581l25.861,66.362
		c0,0.595,0.327,0.892,0.327,1.238c0,0.961-0.611,1.902-2.575,1.902h-32.854c-0.933,0-1.887-0.611-2.26-1.902l-24.484-61.852
		c-0.644-1.287-1.28-1.638-2.246-1.638h-22.662c-2.228,0-2.828,1.01-2.828,2.595v60.251c0,1.935-0.984,2.546-2.537,2.546H865.656z"
		/>
	<path d="M1183.258,419.598c-1.255,0-2.195-0.611-2.195-2.546V293.644c0-1.916-0.658-2.844-3.213-2.844h-30.247
		c-1.635,0-2.583-0.628-2.583-2.262v-26.145c0-1.933,0.948-2.526,2.583-2.526h102.676c0.586,0,2.241,0.594,2.241,2.526v26.145
		c0,1.634-0.992,2.262-2.241,2.262h-30.664c-2.557,0-3.143,0.928-3.143,2.844v123.408c0,1.935-0.96,2.546-2.278,2.546H1183.258z"/>
	<path d="M1285.335,419.598c-1.313,0-2.247-0.611-2.247-2.546V262.394c0-1.933,0.934-2.526,2.247-2.526h101.085
		c1.274,0,2.588,0.594,2.588,2.526v26.145c0,1.634-0.992,2.262-2.588,2.262h-64.71c-2.252,0-2.91,0.928-2.91,2.844v26.771
		c0,1.65,0.658,2.545,2.91,2.545h53.219c1.312,0,2.902,0.694,2.902,2.247v26.457c0,1.949-1.59,2.543-2.902,2.543h-53.219
		c-2.252,0-2.91,1.01-2.91,2.595v29.001c0,1.605,0.658,2.547,2.91,2.547h64.71c1.274,0,2.588,0.627,2.588,2.578v26.125
		c0,1.935-0.992,2.546-2.588,2.546H1285.335z"/>
	<path d="M1430.778,419.598c-1.319,0-2.26-0.611-2.26-2.546V262.394c0-1.933,0.94-2.526,2.26-2.526h26.745
		c1.692,0,2.582,0.594,3.242,1.898l44.246,81.933c2.91,5.42,5.17,11.172,5.446,11.831h0.941c0-1.917-0.941-24.869-0.941-46.6
		v-46.536c0-1.933,0.663-2.526,2.203-2.526h29.672c1.295,0,2.575,0.594,2.575,2.526v154.658c0,1.935-0.945,2.546-2.586,2.546
		h-26.752c-0.94,0-1.598-0.611-2.531-1.902l-44.68-80.691c-2.853-5.104-5.105-10.507-5.105-10.808h-0.941
		c0,1.555,1.313,24.855,1.313,45.263v45.593c0,1.935-1.313,2.546-2.86,2.546H1430.778z"/>
	<path d="M1058.197,366.083c-2.201,0-2.536-0.961-2.536-2.562l14.621-55.985l0.593-2.893h0.185h3.848h0.166l0.637,2.893
		l14.616,55.985c0,1.602-0.309,2.562-2.55,2.562H1058.197z M1095.747,393.083c1.925,0,2.536,0.314,2.864,1.571l6.545,22.951
		c0.31,1.291,1.299,1.902,2.512,1.902h28.809c1.86,0,2.796-0.611,2.827-1.8c0-0.35-0.127-0.928-0.271-1.341l-1.148-3.982
		l-44.883-150.823c-0.405-1.306-0.985-1.603-2.555-1.603H1055.9c-1.615,0-2.203,0.348-2.575,1.603l-44.206,150.823l-1.105,3.982
		c-0.213,0.478-0.265,0.991-0.265,1.341c0.052,1.188,0.94,1.8,2.813,1.8h27.882c1.263,0,2.202-0.611,2.563-1.902l6.549-22.951
		c0.298-1.257,0.922-1.571,2.86-1.571H1095.747z"/>
</g>
</svg>
